<svg xmlns="http://www.w3.org/2000/svg" viewBox="0 0 35.81 36.89"><defs><style>.cls-1{fill:#48afd5;}</style></defs><g id="Layer_3" data-name="Layer 3"><path class="cls-1" d="M35.34,16.66,24.62,12.53,20,.46,19.77,0H16l-.18.46L11.16,12.53.46,16.66,0,16.84V20.6l.47.18,8.17,3.14L4.25,33.8l-.2.46.36.36,2,1.93.35.34.45-.2L17.91,32l10.72,4.74.46.2.35-.34,2-1.93.36-.36-.21-.46-4.38-9.88,8.17-3.14.47-.18V16.84ZM27.41,32.58l-9.3-4.1L18,28.42l.15.06,9.3,4.1Zm-4.85-11-.7.28.31.69,1,2.17L26,31.16,18.4,27.82h0l-.16-.06-.3-.12-.35.11h0l-.17.07L9.82,31.16l2.83-6.43,1-2.17.29-.68-.68-.28-7-2.87L10.74,17l.46-.18v0L14,15.7l.3-.12.12-.3,3.51-9,3.48,9,.12.3.3.12L25,17l4.54,1.77ZM18,31.19l-.06,0-.06,0L6.88,36l11-4.84.06,0,.06,0,11,4.84Z"/></g></svg>