<svg xmlns="http://www.w3.org/2000/svg" viewBox="0 0 38.83 40.01"><defs><style>.cls-1{fill:#d88e3c;}</style></defs><g id="Layer_3" data-name="Layer 3"><path class="cls-1" d="M38.33,18.07,26.7,13.58,21.63.5,21.44,0H17.36l-.2.5L12.1,13.58.5,18.07l-.5.19v4.08l.51.2,8.86,3.4L4.61,36.66l-.22.5.39.38,2.13,2.09.38.38.49-.22,11.64-5.14,11.63,5.14.49.22.38-.38,2.13-2.09.39-.38-.22-.5L29.46,25.94l8.86-3.4.51-.2V18.26Zm-8.6,17.26L19.64,30.89l-.16-.07.16.07,10.09,4.44ZM24.47,23.42l-.76.31.34.75,1.06,2.35,3.07,7L20,30.17h0l-.18-.07L19.44,30l-.38.13h0l-.18.08-8.22,3.62,3.07-7,1-2.35.32-.74-.75-.31L6.75,20.31l4.89-1.9.51-.19v0l3-1.15.33-.13.13-.32,3.8-9.78,3.78,9.77.13.33.32.13,3.52,1.35,4.92,1.92Zm-5,10.4-.06,0-.07,0L7.46,39.07l11.89-5.25.07,0,.06,0,11.89,5.25Z"/></g></svg>